<?xml version="1.0" encoding="utf-8"?>
<!-- Generator: Adobe Illustrator 19.2.1, SVG Export Plug-In . SVG Version: 6.00 Build 0)  -->
<svg version="1.1" id="layer" xmlns="http://www.w3.org/2000/svg" xmlns:xlink="http://www.w3.org/1999/xlink" x="0px" y="0px"
	 viewBox="0 0 652 652" style="enable-background:new 0 0 652 652;" xml:space="preserve">
<style type="text/css">
	.st0{fill:#003684;}
	.st1{fill:#E90753;}
</style>
<path class="st0" d="M99.7,329.3V310H67.4v-3.8c0-12.8,7.9-18.5,33.4-15.5v-18.7c-36.4-4.7-53.6,8.5-53.6,33v76.8h20.2v-52.3H99.7z
	 M523.9,297H544v-19.6h-20.2V297z M620.4,381.6h18.9V310h-18.9v7.4c-6-6.4-14-9.4-23-9.4c-21.3,0-36.8,15.3-36.8,37.8
	s15.3,37.6,36.8,37.6c8.9,0,17-3,23-9.6V381.6z M168.1,381.6h18.9V310h-18.9v6.8c-5.5-6-13-8.7-23-8.7c-21.3,0-36.8,15.3-36.8,37.8
	s15.3,37.6,36.8,37.6c9.8,0,17.4-2.8,23-8.7V381.6z M482.2,326.8c7,0,11.1,1.9,15.5,4.9l8.7-15.3c-6.6-5.3-14.9-8.1-25.9-8.1
	c-21.1,0-38.5,14-38.5,37.6c0,23.6,17,37.6,39.5,37.6c11.3,0,19.1-2.6,25.7-8.5l-8.9-14.7c-4.3,3.2-8.3,5.3-15.5,5.3
	c-11.7,0-20.4-7.4-20.4-19.3C462.4,334,471.1,326.8,482.2,326.8 M425.6,374.6l-8.5-14.5c-5.1,3.8-10.8,6.4-20,6.4
	c-8.5,0-15.5-2.8-19.3-8.5l49.8-15.7c-1.9-21.9-14.2-34-34.7-34c-21.9,0-36.8,15.1-36.8,37.4c0,23.2,16.4,37.8,41,37.8
	C409.5,383.5,419,380.3,425.6,374.6 M298.9,341.2v40.4h20.2v-38.9c0-11.3,6.2-15.7,24.9-15.1v-18.7
	C312.3,306.6,298.9,318.5,298.9,341.2 M523.9,381.6H544V310h-20.2V381.6z M279.3,348.7V310h-20.2v36.4c0,11.1-4,18.9-15.5,18.9
	c-11.5,0-15.5-7.9-15.5-18.9V310h-20.2v38.7c0,20.4,12.1,34.9,35.7,34.9C267.2,383.5,279.3,369.1,279.3,348.7 M392.7,325.1
	c7.7,0,11.5,3.4,13.2,7.4l-31.3,10.6C374.8,332.1,381.8,325.1,392.7,325.1 M581.3,346.1c0-13.2,7.9-20.6,19.1-20.6
	c10.8,0,19.8,8.1,19.8,19.8c0,13-8.9,21-19.8,21C589.1,366.3,581.3,357.8,581.3,346.1 M129,346.1c0-13.2,7.9-20.6,19.1-20.6
	c10.8,0,19.8,8.1,19.8,19.6c0,13.2-8.9,21.3-19.8,21.3C136.9,366.3,129,357.8,129,346.1"/>
<rect x="15.7" y="310" class="st1" width="18.5" height="19.3"/>
</svg>
